PathFileType	4	(X/Y/Z)	Trial5455_Both_Hips_markers_cropped.trc
DataRate	CameraRate	NumFrames	NumMarkers	Units	OrigDataRate	OrigDataStartFrame	OrigNumFrames																																																																																													
200	200	7	27	m	200	0	101
Frame#	Time	R_ASIS			L_ASIS			Sacral			L_Thigh_Superior			L_Thigh_Inferior			L_Thigh_Lateral			L_Shank_Superior			L_Shank_Inferior			L_Shank_Lateral			L_Heel			L_Midfoot_Superior			L_Midfoot_Lateral			L_Toe			R_Thigh_Superior			R_Thigh_Inferior			R_Thigh_Lateral			R_Shank_Superior			R_Shank_Lateral			R_Shank_Inferior			R_Heel			R_Midfoot_Superior			R_Midfoot_Lateral			R_Toe
		X1	Y1	Z1	X2	Y2	Z2	X3	Y3	Z3	X4	Y4	Z4	X5	Y5	Z5	X6	Y6	Z6	X7	Y7	Z7	X8	Y8	Z8	X9	Y9	Z9	X10	Y10	Z10	X11	Y11	Z11	X12	Y12	Z12	X13	Y13	Z13	X14	Y14	Z14	X15	Y15	Z15	X16	Y16	Z16	X17	Y17	Z17	X18	Y18	Z18	X19	Y19	Z19	X20	Y20	Z20	X21	Y21	Z21	X22	Y22	Z22	X23	Y23	Z23

1	   0.000	   -0.67330555679261	    0.93559361128415	   -0.37316116798563	   -0.67828310938389	    1.01194187195124	   -0.63988850470023	   -0.89831076468031	    0.96474996865914	   -0.51797753370571	   -0.53216527312474	    0.93755520112651	   -0.62286300572520	   -0.35746982860956	    0.84735091134868	   -0.64960174332788	   -0.47416968568909	    0.83835867818403	   -0.72306155875028	   -0.25132633019350	    0.74509817655300	   -0.67973070227100	   -0.08953700219277	    0.57650911737403	   -0.70676175142367	   -0.21728694812260	    0.61767617532701	   -0.76476168160000	   -0.03540146585000	    0.37142910593399	   -0.71466489538476	    0.01249777021872	    0.54433139328366	   -0.73245388852437	    0.01381360047575	    0.44760492474583	   -0.77996512197297	    0.13291070974206	    0.62196981852517	   -0.74192498173595	   -0.60620270418769	    0.74059415316733	   -0.42694855915988	   -0.59744875730951	    0.57255731386011	   -0.45653672739839	   -0.68559321630725	    0.61407908143496	   -0.38186243559570	   -0.62696013918293	    0.38887842989340	   -0.45872991976999	   -0.66909984552204	    0.19380399289523	   -0.47259426569203	   -0.70757086024175	    0.28498249449318	   -0.40357644760236	   -0.81240549070502	    0.03597391103963	   -0.51318617600520	   -0.64207647609667	    0.09028383160313	   -0.47042227352948	   -0.73237539478011	    0.02875701914333	   -0.43563405892816	   -0.52353275681788	    0.03894493215193	   -0.43732739462179
2	   0.005	   -0.67232027021455	    0.93408612733695	   -0.37403828185988	   -0.68047230070519	    1.01007832241983	   -0.63983625444036	   -0.89927733867871	    0.97683992907656	   -0.50921197146225	   -0.54159259506811	    0.91450010157344	   -0.62103195764841	   -0.38482105147066	    0.80261608766061	   -0.64344361192317	   -0.49979308707373	    0.80827851281269	   -0.71696246318670	   -0.29616118314338	    0.68743028073423	   -0.67103319997336	   -0.16628815824130	    0.49962314761285	   -0.69776397756481	   -0.28197455232913	    0.55919914011704	   -0.75724932574463	   -0.14536098259221	    0.29309345156038	   -0.70782551345310	   -0.07313160640451	    0.45343662680370	   -0.72281698050953	   -0.08576594362899	    0.35969934409528	   -0.77161746005583	    0.05500743386529	    0.51091351819572	   -0.73024742641223	   -0.61236969311038	    0.73828281602919	   -0.42745088738206	   -0.60881409824483	    0.57262919249013	   -0.45747786456728	   -0.69350291743858	    0.61531261042683	   -0.38010010928034	   -0.63709706117967	    0.39120855875285	   -0.45781374601922	   -0.67371056973803	    0.19533636208630	   -0.47184889539995	   -0.71476563468655	    0.28540078052445	   -0.40256827331052	   -0.81260635499335	    0.03575181886203	   -0.51304423670080	   -0.64285958387238	    0.09095452410467	   -0.47007532428028	   -0.73250605000636	    0.02855568668946	   -0.43550097165769	   -0.52385006429804	    0.04034197760599	   -0.43745301013045
3	   0.010	   -0.67085677646516	    0.93234954173229	   -0.37531948370797	   -0.68250714112328	    1.00797251727717	   -0.63997502954845	   -0.89939476628369	    0.98893998617833	   -0.50073911458943	   -0.55152084588917	    0.89073363919462	   -0.61912883026224	   -0.41408997792453	    0.75744613020774	   -0.63645973326881	   -0.52651194346372	    0.77780923376710	   -0.71039290843167	   -0.34347950104567	    0.63050400062517	   -0.66116600859315	   -0.24530787083283	    0.42557755011339	   -0.68649828775262	   -0.34834012147967	    0.50204854251897	   -0.74796736530567	   -0.25641827016553	    0.21914468166248	   -0.69785073900265	   -0.16124410829478	    0.36618760869508	   -0.71045790652193	   -0.18704612828044	    0.27573562125575	   -0.76019424820509	   -0.02656757700127	    0.40382061402647	   -0.71553841483245	   -0.61815584930991	    0.73591997937139	   -0.42792206521366	   -0.62000696936637	    0.57275207003691	   -0.45832892632183	   -0.70118390146087	    0.61665289697132	   -0.37836530017459	   -0.64710527219076	    0.39349204657726	   -0.45686346753475	   -0.67828464419229	    0.19686094438761	   -0.47104921892460	   -0.72194921056811	    0.28586838842508	   -0.40152806140635	   -0.81279837666097	    0.03554601981700	   -0.51290340956397	   -0.64360678178550	    0.09160081321171	   -0.46975138102353	   -0.73262737113494	    0.02835994086000	   -0.43537410498674	   -0.52414751169905	    0.04167112182393	   -0.43761424679685
4	   0.015	   -0.66861975696803	    0.93037776165140	   -0.37701794751528	   -0.68362464138772	    1.00520319477926	   -0.64041531292151	   -0.89773954416457	    1.00039790625967	   -0.49315482285358	   -0.56197406455678	    0.86601859902498	   -0.61683983851422	   -0.44640821395236	    0.71252134250843	   -0.62786562175958	   -0.55463079920202	    0.74741899589075	   -0.70283610026953	   -0.39496898103825	    0.57619251010366	   -0.64943721440880	   -0.32889214811625	    0.35830448173541	   -0.67182407588175	   -0.41802556530599	    0.44899542959500	   -0.73576204904601	   -0.37041977976388	    0.15537362730302	   -0.68287982907157	   -0.25473217747334	    0.28720369400649	   -0.69415777595689	   -0.29265184278179	    0.20086944973910	   -0.74412853512585	   -0.11593206994057	    0.30512993530393	   -0.69684683979232	   -0.62305126961161	    0.73364189477538	   -0.42801951120633	   -0.63035492318313	    0.57299884507809	   -0.45863455086443	   -0.70805200424293	    0.61816135243394	   -0.37642124006023	   -0.65643970860167	    0.39556994325918	   -0.45563620147296	   -0.68256253549696	    0.19827351683275	   -0.47006499468266	   -0.72882240513595	    0.28633428396399	   -0.40033540082373	   -0.81296430503705	    0.03537928541273	   -0.51277354622034	   -0.64425354940076	    0.09217474320187	   -0.46942352473008	   -0.73273620199443	    0.02817774352600	   -0.43525608824852	   -0.52439613370687	    0.04280528766654	   -0.43779438152307
5	   0.020	   -0.66565483375418	    0.92846247392060	   -0.37824950471761	   -0.68253577479446	    1.00137582832456	   -0.64076024838686	   -0.89388169966457	    1.01008105659928	   -0.48708544157410	   -0.57219622340065	    0.84086591872498	   -0.61355579391605	   -0.48122570380730	    0.66965045652404	   -0.61782168875402	   -0.58320900390101	    0.71869326365054	   -0.69418612533135	   -0.45073198425969	    0.52690668694810	   -0.63674566896258	   -0.41925944644540	    0.30157225226627	   -0.65585570576535	   -0.49236885727333	    0.40402147445808	   -0.72186178797371	   -0.49082268382544	    0.10739815271315	   -0.66539963838623	   -0.35700745444795	    0.22047166381143	   -0.67680603132067	   -0.40675541594075	    0.14022831214800	   -0.72634826112628	   -0.21738646474220	    0.21776753256435	   -0.67816694674618	   -0.62649799228432	    0.73175765723214	   -0.42697152306412	   -0.63861308973001	    0.57336344100044	   -0.45760009378581	   -0.71326879541790	    0.61967533959302	   -0.37381253319357	   -0.66407812438095	    0.39717429747619	   -0.45373907290599	   -0.68604011121126	    0.19938770281333	   -0.46874047277406	   -0.73471929493128	    0.28663610241030	   -0.39884188143048	   -0.81307687151256	    0.03527177060775	   -0.51267579053908	   -0.64472709700990	    0.09261598479880	   -0.46901090935631	   -0.73283833996988	    0.02800790755236	   -0.43514832956571	   -0.52457429403206	    0.04359287520642	   -0.43788884916806
6	   0.025	   -0.66194977234475	    0.92689118528705	   -0.37770087092168	   -0.67819159524939	    0.99626912640264	   -0.64016159446280	   -0.88782522823807	    1.01727273135088	   -0.48269465183094	   -0.58205834133111	    0.81585181731872	   -0.60926876272714	   -0.51805062805458	    0.63074595294688	   -0.60837131446631	   -0.61187904812620	    0.69353055687490	   -0.68555911251279	   -0.51090789367990	    0.48488185137640	   -0.62606945970012	   -0.51823239712683	    0.25879992299828	   -0.64347786528250	   -0.57259192106204	    0.37119317348753	   -0.70991056032135	   -0.62048784207055	    0.08010579311753	   -0.65115206891505	   -0.47096026495217	    0.16971767968059	   -0.66446899359676	   -0.53297635836634	    0.09886386273798	   -0.71310839628933	   -0.33453793924062	    0.14470934953479	   -0.66702913370723	   -0.62791576896250	    0.73045876887043	   -0.42396242982207	   -0.64353134778498	    0.57367376784911	   -0.45472438335511	   -0.71615482282268	    0.62078861199573	   -0.37026726481420	   -0.66897732248148	    0.39807977460468	   -0.45100942033328	   -0.68823501719918	    0.20004412445235	   -0.46706642081011	   -0.73884705345755	    0.28663683329631	   -0.39699220155289	   -0.81311147702975	    0.03523580462852	   -0.51262944494846	   -0.64496655941833	    0.09287244197648	   -0.46848486745046	   -0.73293090933368	    0.02785271904899	   -0.43505968367945	   -0.52466365028067	    0.04393814566750	   -0.43780772104768
7	   0.030	   -0.65709926461952	    0.92565871465508	   -0.37475646064744	   -0.67075365110420	    0.99006690356671	   -0.63800376699240	   -0.87979908369241	    1.02199075565468	   -0.47942682888967	   -0.59328821062646	    0.79153694206245	   -0.60549896135130	   -0.55832794560754	    0.59746349536566	   -0.60306427390473	   -0.64231995209280	    0.67370420920466	   -0.67934395914412	   -0.57679470957092	    0.45224207937700	   -0.62131868357676	   -0.62615231691853	    0.23304067866917	   -0.63947032384549	   -0.65939291134481	    0.35354027999078	   -0.70403422541440	   -0.75873053314050	    0.07680871453518	   -0.64523483751224	   -0.59684423395365	    0.13860842753769	   -0.66243343726869	   -0.67117137780214	    0.08102114307462	   -0.70974857385872	   -0.46806170111547	    0.09029732481735	   -0.66945643407323	   -0.62694246694585	    0.72961474710064	   -0.41914934700087	   -0.64465199508469	    0.57363494929818	   -0.45047893293385	   -0.71628958641101	    0.62104355519693	   -0.36591378428706	   -0.67071210770532	    0.39823633559458	   -0.44776697205142	   -0.68899402777009	    0.20019237384946	   -0.46527919279294	   -0.74064972148080	    0.28626534620413	   -0.39491716127012	   -0.81308538753860	    0.03527968987599	   -0.51262963712499	   -0.64494425379750	    0.09290994614372	   -0.46795749000358	   -0.73299372867708	    0.02774111242529	   -0.43500446396919	   -0.52465741344215	    0.04384958215953	   -0.43763103734296
